<?xml version="1.0" encoding="utf-8"?>
<!-- Generator: Adobe Illustrator 25.2.0, SVG Export Plug-In . SVG Version: 6.00 Build 0)  -->
<svg version="1.1" id="Layer_1" xmlns="http://www.w3.org/2000/svg" xmlns:xlink="http://www.w3.org/1999/xlink" x="0px" y="0px"
	 viewBox="0 0 101.9 100.2" style="enable-background:new 0 0 101.9 100.2;" xml:space="preserve">
<style type="text/css">
	.st0{fill:#FFFFFF;}
</style>
<g>
	<g>
		<g>
			<path class="st0" d="M0.4,35.4L0,36.5L7,39l0.4-1.1L0.4,35.4z"/>
			<path class="st0" d="M9.9,32.3l-6.7-3.2L2.7,30l4,1.9l-4.6-0.8l-0.6,1.3l6.7,3.2l0.5-1l-4.9-2.3l5.5,1L9.9,32.3z"/>
			<path class="st0" d="M6.3,25.8l0.6-1L6,24.2l-1.9,3.1L5,27.8l0.6-1l5.5,3.4l0.6-1L6.3,25.8z"/>
			<path class="st0" d="M14.4,23.6l-1.2,1.6l-1.7-1.3l1-1.3l-0.8-0.7l-1,1.3L9,21.9l1.2-1.6l-0.8-0.7l-2,2.5l5.9,4.6l2-2.5
				L14.4,23.6z"/>
			<path class="st0" d="M18.8,19.8c-0.1-0.1-0.2-0.2-0.4-0.3l-0.8-0.8c-0.3-0.3-0.6-0.5-0.8-0.6c-0.3-0.1-0.6-0.1-0.9,0
				c0.2-0.5,0-1.1-0.5-1.6L15,16.1c-0.4-0.4-0.8-0.6-1.2-0.6c-0.4,0-0.8,0.2-1.2,0.7l-1.2,1.3l5.3,5.2l0.8-0.8l-2.2-2.1l0.3-0.3
				c0.2-0.2,0.4-0.3,0.6-0.3c0.2,0,0.4,0.1,0.7,0.4l0.8,0.8c0.1,0.1,0.2,0.2,0.3,0.3c0.1,0.1,0.1,0.1,0.2,0.2c0.1,0,0.1,0.1,0.1,0.1
				c0,0,0.1,0,0.1,0.1l0.8-0.9C19.1,20,18.9,19.9,18.8,19.8z M14.8,18.6l-0.3,0.3l-1.6-1.6l0.4-0.4c0.1-0.2,0.3-0.2,0.5-0.2
				c0.1,0,0.3,0.1,0.5,0.3l0.5,0.5c0.2,0.2,0.3,0.4,0.3,0.6C15.1,18.3,15,18.4,14.8,18.6z"/>
			<path class="st0" d="M23.6,16.3L19,10.5l-0.8,0.7l2.8,3.5l-3.7-2.8l-1.2,0.9l4.6,5.9l0.8-0.7l-3.4-4.2l4.5,3.3L23.6,16.3z"/>
			<path class="st0" d="M23.7,7.4l-1.5,0.9l2.9,7l0.9-0.6l-0.5-1.3l1.2-0.7l0.9,1.1l1-0.6L23.7,7.4z M25.1,12.6l-1.5-3.5L26,12
				L25.1,12.6z"/>
			<path class="st0" d="M29,5.9l1.1-0.5l-0.5-1l-3.3,1.5l0.5,1l1.1-0.5l2.7,5.8l1.1-0.5L29,5.9z"/>
			<path class="st0" d="M33,3.1l-1.1,0.4l2.6,7l1.1-0.4L33,3.1z"/>
			<path class="st0" d="M40.7,6.8l-1-3.8c-0.1-0.6-0.4-1-0.8-1.2c-0.4-0.2-0.8-0.3-1.4-0.1C37,1.7,36.6,2,36.4,2.4
				c-0.2,0.4-0.3,0.9-0.1,1.5l1,3.8c0.1,0.6,0.4,1,0.8,1.2c0.4,0.2,0.8,0.3,1.4,0.1c0.6-0.1,0.9-0.4,1.2-0.8
				C40.9,7.8,40.9,7.3,40.7,6.8z M39.6,7.7c-0.1,0.1-0.2,0.2-0.4,0.3c-0.2,0-0.3,0-0.5-0.1c-0.1-0.1-0.2-0.3-0.3-0.5l-1-3.9
				c-0.1-0.3-0.1-0.5,0-0.6c0.1-0.1,0.2-0.2,0.4-0.3c0.2-0.1,0.3,0,0.5,0.1c0.1,0.1,0.2,0.2,0.3,0.5l1,3.9
				C39.7,7.4,39.7,7.6,39.6,7.7z"/>
			<path class="st0" d="M46.9,7.6L46,0.2l-1,0.1l0.6,4.4l-1.7-4.3l-1.5,0.2l0.9,7.4l1-0.1l-0.7-5.4l2.1,5.2L46.9,7.6z"/>
			<path class="st0" d="M51.4,0l-1.7,0l-1.1,7.5l1.1,0l0.2-1.3l1.4,0l0.2,1.3l1.2,0L51.4,0z M50,5.1l0.5-3.8l0.6,3.8L50,5.1z"/>
			<path class="st0" d="M55.8,6.7l0.7-6.4l-1.2-0.1l-0.8,7.4l3.1,0.3l0.1-1.1L55.8,6.7z"/>
			<path class="st0" d="M65.9,3.2l0.3-1L63,1.3l-1.9,7.2l3.1,0.8l0.3-1l-2-0.5l0.5-2.1l1.6,0.4l0.3-1l-1.6-0.4l0.5-2L65.9,3.2z"/>
			<path class="st0" d="M71.3,4l-3,5.4l1.4-6l-1.1-0.4l-1.6,7.4l1.6,0.6l3.8-6.5L71.3,4z"/>
			<path class="st0" d="M77.2,8l0.5-0.9l-2.8-1.5l-3.5,6.6l2.8,1.5l0.5-0.9l-1.8-0.9l1-1.9l1.4,0.8l0.5-0.9l-1.4-0.7l1-1.8L77.2,8z"
				/>
			<path class="st0" d="M81.7,9.6l-1.5-1l-4.3,6.1l1,0.7l1.7-2.5l0.3,0.2c0.2,0.2,0.3,0.3,0.4,0.5c0,0.2-0.1,0.4-0.3,0.7l-0.7,1
				c-0.1,0.1-0.1,0.2-0.2,0.3c-0.1,0.1-0.1,0.1-0.1,0.2c0,0.1,0,0.1-0.1,0.1c0,0,0,0.1,0,0.1l1,0.7c0-0.1,0.1-0.3,0.2-0.4
				c0.1-0.1,0.1-0.3,0.3-0.4l0.7-0.9c0.2-0.3,0.4-0.6,0.4-0.9c0.1-0.3,0-0.6-0.2-0.8c0.6,0.1,1.1-0.2,1.5-0.8l0.3-0.5
				c0.3-0.5,0.5-0.9,0.4-1.3C82.4,10.3,82.2,10,81.7,9.6z M81.1,11.4L80.7,12c-0.2,0.3-0.3,0.4-0.5,0.4c-0.2,0-0.3,0-0.5-0.1
				L79.3,12l1.3-1.9l0.5,0.3c0.2,0.1,0.3,0.3,0.3,0.4C81.3,11,81.2,11.2,81.1,11.4z"/>
			<path class="st0" d="M86.9,13.6c-0.4-0.4-0.9-0.5-1.3-0.5c-0.4,0-0.9,0.3-1.3,0.7l-2.6,2.9c-0.4,0.5-0.6,0.9-0.6,1.3
				c0,0.4,0.2,0.8,0.7,1.2c0.4,0.4,0.9,0.6,1.3,0.5c0.4,0,0.9-0.3,1.3-0.7l1.6-1.8l-1.2-1.1L84,17l0.4,0.3l-0.9,1
				c-0.2,0.2-0.3,0.3-0.5,0.3c-0.1,0-0.3-0.1-0.4-0.2c-0.1-0.1-0.2-0.3-0.2-0.4c0-0.1,0.1-0.3,0.3-0.5l2.7-3
				c0.2-0.2,0.3-0.3,0.5-0.3c0.1,0,0.3,0.1,0.4,0.2c0.1,0.1,0.2,0.3,0.2,0.4c0,0.1-0.1,0.3-0.3,0.5L85.6,16l0.8,0.7l0.5-0.5
				c0.4-0.4,0.6-0.9,0.6-1.3C87.5,14.4,87.3,14,86.9,13.6z"/>
			<path class="st0" d="M91.4,18.3L90.2,17l-5.6,4.9l0.8,0.9l2.3-2l0.3,0.3c0.2,0.2,0.3,0.4,0.2,0.6c0,0.2-0.2,0.4-0.4,0.6l-0.9,0.8
				c-0.1,0.1-0.2,0.2-0.3,0.3c-0.1,0.1-0.1,0.1-0.2,0.2c0,0.1-0.1,0.1-0.1,0.1c0,0-0.1,0.1-0.1,0.1l0.8,0.9c0.1-0.1,0.2-0.3,0.3-0.3
				c0.1-0.1,0.2-0.2,0.3-0.3l0.9-0.8c0.3-0.3,0.5-0.5,0.6-0.8c0.1-0.3,0.1-0.5,0-0.9c0.5,0.2,1.1,0.1,1.6-0.4l0.4-0.4
				c0.4-0.4,0.7-0.8,0.7-1.2C92,19.2,91.8,18.8,91.4,18.3z M90.4,19.9l-0.5,0.5c-0.2,0.2-0.4,0.3-0.6,0.3c-0.2,0-0.3-0.1-0.5-0.3
				l-0.3-0.3l1.7-1.5l0.4,0.4c0.1,0.2,0.2,0.3,0.2,0.5C90.7,19.6,90.6,19.8,90.4,19.9z"/>
			<path class="st0" d="M94.5,22l-6.2,4.2l1.8,2.6l0.9-0.6l-1.1-1.7l1.8-1.2l0.9,1.3l0.9-0.6l-0.9-1.3l1.7-1.2l1.1,1.7l0.9-0.6
				L94.5,22z"/>
			<path class="st0" d="M97.8,27.2l-6.6,3.5l1.5,2.8l0.9-0.5l-0.9-1.8l1.9-1l0.8,1.4l0.9-0.5l-0.8-1.4l1.8-1l0.9,1.8l0.9-0.5
				L97.8,27.2z"/>
			<path class="st0" d="M101.5,35.2l-4.2,1.6l3.8-2.7l-0.5-1.4l-7,2.7l0.4,1l5.1-1.9l-4.5,3.3l0.4,1.1l7-2.7L101.5,35.2z"/>
		</g>
		<g>
			<path class="st0" d="M24.7,77.1l-7.8,4.7l6.7-6.2l-1-1.4L14.8,79l6.6-6.2l-1.1-1.4l-8.3,7.9l1.5,2l5.2-3.2l-4.4,4.2l1.4,1.9
				l9.9-5.9L24.7,77.1z"/>
			<path class="st0" d="M29.4,81.2c-0.7-0.5-1.4-0.8-2-0.7c-0.7,0.1-1.3,0.5-1.9,1.2l-3.7,4.6c-0.6,0.7-0.8,1.4-0.8,2.1
				c0.1,0.7,0.4,1.3,1.1,1.8c0.7,0.5,1.4,0.8,2,0.7c0.7-0.1,1.3-0.5,1.9-1.2l3.7-4.6c0.6-0.7,0.8-1.4,0.8-2.1
				C30.4,82.4,30.1,81.8,29.4,81.2z M28.4,84l-3.8,4.8c-0.3,0.3-0.5,0.5-0.7,0.5c-0.2,0-0.5,0-0.7-0.2c-0.2-0.2-0.3-0.4-0.4-0.6
				c0-0.2,0.1-0.5,0.3-0.8l3.8-4.8c0.3-0.3,0.5-0.5,0.7-0.5c0.2,0,0.5,0,0.7,0.2c0.2,0.2,0.3,0.4,0.4,0.6
				C28.8,83.3,28.7,83.6,28.4,84z"/>
			<path class="st0" d="M37.6,86.9c-0.2-0.7-0.7-1.2-1.5-1.5c-0.8-0.4-1.5-0.4-2.1-0.2c-0.6,0.3-1.1,0.8-1.5,1.6l-2.5,5.4
				c-0.4,0.8-0.5,1.6-0.3,2.2c0.2,0.6,0.7,1.2,1.5,1.5c0.8,0.4,1.5,0.4,2.1,0.2c0.6-0.3,1.1-0.8,1.5-1.6l2.5-5.4
				C37.7,88.3,37.8,87.6,37.6,86.9z M35.7,88.3l-2.6,5.6c-0.2,0.4-0.4,0.6-0.6,0.7c-0.2,0.1-0.5,0.1-0.7-0.1
				c-0.3-0.1-0.4-0.3-0.5-0.5c-0.1-0.2,0-0.5,0.1-0.9l2.6-5.6c0.2-0.4,0.4-0.6,0.6-0.7c0.2-0.1,0.5-0.1,0.7,0.1
				c0.3,0.1,0.4,0.3,0.5,0.5C36,87.6,35.9,87.9,35.7,88.3z"/>
			<path class="st0" d="M45.5,89.2c-0.3-0.6-0.9-0.9-1.8-1.1l-2.8-0.6l-2.4,11.2l2.8,0.6c0.9,0.2,1.6,0.1,2.1-0.3
				c0.5-0.4,0.9-1,1.1-1.9l1.2-5.6C45.8,90.5,45.8,89.8,45.5,89.2z M43.9,90.9l-1.3,5.8c-0.1,0.4-0.2,0.7-0.4,0.8
				c-0.2,0.1-0.4,0.1-0.7,0.1l-1-0.2l1.7-8l1,0.2c0.3,0.1,0.5,0.2,0.6,0.4C44,90.2,44,90.5,43.9,90.9z"/>
			<path class="st0" d="M56.4,90.2l-0.1-1.6L50.8,89l0.1,1.6l1.9-0.1l0.7,9.7l1.8-0.1l-0.7-9.7L56.4,90.2z"/>
			<path class="st0" d="M66.4,97c-0.1-0.2-0.2-0.4-0.2-0.7l-0.5-1.7c-0.2-0.6-0.4-1-0.7-1.4c-0.3-0.4-0.7-0.6-1.1-0.6
				c0.6-0.6,0.8-1.4,0.5-2.6l-0.3-0.9c-0.3-0.8-0.6-1.4-1.2-1.7c-0.5-0.3-1.2-0.3-2.1-0.1l-2.6,0.7l3.2,11l1.7-0.5l-1.3-4.4l0.6-0.2
				c0.4-0.1,0.7-0.1,0.9,0.1c0.2,0.2,0.4,0.5,0.6,1l0.5,1.7c0.1,0.2,0.1,0.4,0.2,0.5s0.1,0.3,0.1,0.3c0,0.1,0.1,0.2,0.1,0.2
				c0,0.1,0.1,0.1,0.1,0.2l1.7-0.5C66.6,97.4,66.5,97.2,66.4,97z M62.7,92c-0.1,0.2-0.4,0.4-0.7,0.5l-0.7,0.2l-1-3.4l0.8-0.2
				c0.3-0.1,0.5-0.1,0.7,0.1c0.2,0.1,0.3,0.4,0.5,0.8l0.3,1.1C62.8,91.4,62.8,91.7,62.7,92z"/>
			<path class="st0" d="M69.1,83.8l-2.3,1.3l4,10.8l1.4-0.8l-0.7-2l1.9-1.1l1.3,1.6l1.6-0.9L69.1,83.8z M70.9,91.7l-2.1-5.5l3.6,4.6
				L70.9,91.7z"/>
			<path class="st0" d="M82.2,84.3L78.4,80c-0.6-0.7-1.3-1.1-1.9-1.1c-0.6-0.1-1.3,0.2-2,0.8l-2.1,1.9l7.6,8.5l2.1-1.9
				c0.7-0.6,1-1.2,1-1.9C83.2,85.7,82.8,85,82.2,84.3z M81,87l-0.7,0.7l-5.5-6l0.7-0.7c0.2-0.2,0.4-0.3,0.7-0.3
				c0.2,0,0.5,0.2,0.8,0.5l4,4.4c0.3,0.3,0.4,0.6,0.4,0.8C81.3,86.6,81.2,86.8,81,87z"/>
			<path class="st0" d="M88.9,77.7l-1.8,2.5l-2.7-1.9l1.4-2l-1.3-0.9l-1.4,2l-2.6-1.8l1.8-2.5L81,72l-2.8,4l9.3,6.6l2.8-4L88.9,77.7
				z"/>
		</g>
	</g>
	<g>
		<path class="st0" d="M89.7,63c0.4,0.1,0.7,0.2,1.1,0.2c0,0-0.1-0.1-0.1-0.1c-1.6-1.2-3.2-2.4-4.9-3.6c-0.1-0.1-0.1-0.1-0.1-0.2
			c0-0.5,0-1,0-1.5c0-0.2,0-0.2,0.2-0.1c1,0.4,2,0.9,2.9,1.3c0.2,0.1,0.5,0.2,0.7,0.3c0-0.1,0-0.1,0-0.1c-0.6-0.6-1.2-1.3-1.8-1.9
			c-0.7-0.7-1.3-1.4-2-2.1c0-0.1-0.1-0.1-0.1-0.2c0-0.1,0-0.1,0-0.1c0,0,0.1,0,0.1,0c0.6,0.3,1.2,0.5,1.8,0.8
			c0.2,0.1,0.5,0.2,0.8,0.3c0,0,0,0,0,0c-0.9-0.9-1.8-1.8-2.6-2.8c0,0,0,0,0,0c0.5,0.2,1,0.4,1.5,0.6c0-0.1-0.1-0.1-0.1-0.2
			c-0.5-0.5-1-1-1.6-1.5c0,0-0.1-0.1-0.1-0.1c0-0.2,0-0.4,0-0.6c0.2,0.2,0.4,0.3,0.5,0.4c0.4,0.3,0.7,0.6,1.1,0.9c0,0,0,0,0,0
			c0,0,0-0.1,0-0.1c-0.6-1.2-1.2-2.3-1.7-3.5c0,0,0-0.1-0.1-0.1c-0.7,1.2-1.3,2.4-2,3.6c0,0,0,0,0,0c0.6-0.5,1.3-1,1.9-1.5
			c0,0.1,0,0.3,0,0.4c0,0.1,0,0.3-0.1,0.4c-0.3,0.3-0.5,0.6-0.8,0.9c-0.4,0.4-0.7,0.8-1.1,1.2c0.1,0,0.1,0,0.2-0.1
			c0.5-0.2,1-0.5,1.5-0.7c0,0,0,0,0,0c0,0,0,0,0,0c0,0.1-0.1,0.1-0.1,0.1c-0.8,0.8-1.7,1.7-2.5,2.5c0,0-0.1,0.1-0.1,0.2
			c1-0.4,2-0.9,2.9-1.3c0,0.1,0,0.3-0.1,0.4c-0.4,0.4-0.9,0.9-1.3,1.4c-0.6,0.6-1.1,1.1-1.7,1.7c-0.4,0.4-0.8,0.8-1.2,1.2l0,0
			c0,0,0.1,0,0.1,0c0.9-0.4,1.8-0.8,2.6-1.2c0.4-0.2,0.9-0.4,1.3-0.6c0,0,0.1-0.1,0.1,0c0,0.1,0,0.3-0.1,0.4
			c-0.7,0.8-1.5,1.5-2.2,2.3c-0.9,1-1.8,1.9-2.8,2.9c-0.1,0.1-0.2,0.2-0.2,0.3l0,0c0,0,0,0,0,0c0,0,0,0,0,0c0,0,0,0,0,0
			c0.1,0,0.1,0,0.2-0.1c1.5-0.7,3-1.5,4.5-2.2c0.1-0.1,0.2-0.1,0.4-0.2c0,0.1,0,0.1,0,0.1c-0.8,0.9-1.5,1.7-2.3,2.6
			c-0.6,0.7-1.2,1.4-1.8,2.1c1,0,2.1,0,3.1,0c0.3-0.2,0.6-0.3,1-0.5c0.1-0.1,0.1,0,0.1,0.1c0,0.1,0,0.3,0,0.4c0.4,0,0.9,0,1.3,0
			c0-0.1,0-0.3,0-0.4c0-0.1,0-0.1,0.1-0.1c0.3,0.2,0.6,0.3,0.9,0.5c0.8,0,1.7,0,2.5,0c-1.2-1.2-2.5-2.3-3.8-3.5c0.1,0,0.1,0,0.1,0
			C87.2,62.5,88.5,62.8,89.7,63z"/>
		<polygon class="st0" points="90.8,63.2 90.8,63.2 90.8,63.2 		"/>
		<path class="st0" d="M17.7,65c1,0.3,2.1,0.5,3.1,0.8c0,0,0,0,0.1,0c0.2,0,0.4,0,0.7,0c0,0,0,0-0.1-0.1c-0.5-0.3-1.1-0.7-1.6-1
			c-0.8-0.5-1.7-1.1-2.5-1.6c-0.1,0-0.1-0.1-0.1-0.1c0-0.1,0-0.2,0-0.4c1.2,0.6,2.3,1.2,3.5,1.8c0,0,0,0,0,0
			c-0.1-0.1-0.2-0.2-0.3-0.3c-1-1.2-2-2.4-3-3.7c-0.1-0.1-0.2-0.3-0.3-0.4c-0.1-0.1-0.1-0.3-0.1-0.4c0-0.1,0.2,0,0.3,0
			c0.7,0.3,1.5,0.6,2.2,0.9c0.3,0.1,0.7,0.3,1,0.4c0,0,0,0,0,0c0,0-0.1-0.1-0.1-0.1c-1.1-1-2.3-2.1-3.4-3.1
			c-0.1-0.1-0.2-0.2-0.1-0.4c0.5,0.2,1,0.4,1.5,0.6c0.4,0.1,0.8,0.3,1.1,0.4c0,0,0,0,0,0c0,0,0,0,0,0c0,0,0,0,0,0c0,0,0,0,0,0
			c-0.5-0.5-1-1-1.6-1.4c-0.3-0.3-0.6-0.6-0.9-0.8c0,0,0,0,0,0c0.4,0.1,0.7,0.3,1.1,0.4c0-0.1-0.1-0.1-0.1-0.1
			c-0.4-0.3-0.8-0.7-1.2-1c0,0-0.1-0.1-0.1-0.1c0-0.2-0.1-0.5,0-0.7c0.1,0,0.1,0.1,0.2,0.1c0.4,0.3,0.7,0.6,1.1,0.8l0,0c0,0,0,0,0,0
			c0,0,0,0,0,0c0,0,0-0.1,0-0.1c-0.3-0.4-0.5-0.9-0.8-1.3c-0.2-0.3-0.4-0.6-0.6-1c-0.5,0.8-1,1.6-1.6,2.4c0,0,0,0,0,0
			c0.5-0.3,0.9-0.6,1.4-0.9c0,0.2,0,0.5,0,0.7c0,0.1,0,0.1-0.1,0.1c-0.3,0.2-0.5,0.4-0.8,0.7c-0.2,0.2-0.4,0.4-0.7,0.6c0,0,0,0,0,0
			c0.4-0.2,0.8-0.3,1.2-0.5c0,0,0,0,0,0c-0.9,0.8-1.8,1.5-2.7,2.3c0.1,0,0.1,0,0.2,0c0.8-0.3,1.6-0.6,2.5-0.9c0.1,0,0.2-0.1,0.2-0.1
			c0.1,0.1,0,0.2,0,0.3c0,0.1-0.1,0.1-0.1,0.1c-1,0.9-2,1.7-3,2.6c-0.2,0.2-0.5,0.4-0.7,0.6c0,0,0,0,0,0c1.2-0.5,2.5-0.9,3.8-1.4
			c0,0.2,0.1,0.4-0.1,0.5c-1,1.1-2,2.2-3,3.4c-0.3,0.3-0.5,0.6-0.8,0.9c0,0,0,0,0,0c0.1,0,0.1,0,0.2-0.1c1.1-0.5,2.3-1.1,3.4-1.6
			c0.1,0,0.1-0.1,0.2-0.1c0.1,0,0,0.1,0,0.2c0,0.1,0,0.2,0,0.3c0,0.1,0,0.1-0.1,0.2c-0.6,0.4-1.2,0.9-1.8,1.3
			c-0.6,0.4-1.2,0.9-1.9,1.3c0.4,0,0.9,0,1.3,0c0.4-0.2,0.8-0.3,1.1-0.4c0.4-0.1,0.7-0.3,1.1-0.4c0.1,0,0.1,0,0.1,0.1
			c0,0.1,0,0.2,0,0.2c0,0.2,0,0.4-0.2,0.5c0.5,0,1.1,0,1.6,0c-0.3-0.1-0.2-0.3-0.2-0.6C17.4,64.9,17.4,64.9,17.7,65z"/>
		<path class="st0" d="M20.7,60.9C20.7,60.9,20.7,60.8,20.7,60.9C20.7,60.8,20.7,60.8,20.7,60.9C20.7,60.8,20.7,60.8,20.7,60.9
			C20.7,60.8,20.7,60.8,20.7,60.9z"/>
		<path class="st0" d="M69.1,47.2C69.1,47.2,69.1,47.2,69.1,47.2C69.1,47.2,69.1,47.2,69.1,47.2C69.1,47.2,69.1,47.2,69.1,47.2z"/>
		<path class="st0" d="M41.8,51.9C41.8,51.9,41.9,51.9,41.8,51.9C41.9,51.9,41.9,51.9,41.8,51.9C41.8,51.9,41.8,51.9,41.8,51.9z"/>
		<path class="st0" d="M74.5,51.5C74.5,51.5,74.5,51.5,74.5,51.5C74.4,51.5,74.4,51.5,74.5,51.5C74.4,51.5,74.5,51.5,74.5,51.5z"/>
		<path class="st0" d="M23.2,61.1C23.3,61.1,23.3,61.1,23.2,61.1C23.3,61,23.3,61,23.2,61.1C23.3,61,23.2,61,23.2,61.1z"/>
		<path class="st0" d="M40.3,58.2C40.3,58.2,40.3,58.2,40.3,58.2C40.3,58.2,40.3,58.2,40.3,58.2C40.2,58.2,40.2,58.2,40.3,58.2
			C40.2,58.2,40.3,58.2,40.3,58.2z"/>
		<path class="st0" d="M38.7,55.2C38.8,55.2,38.7,55.2,38.7,55.2C38.7,55.1,38.7,55.2,38.7,55.2C38.7,55.2,38.7,55.2,38.7,55.2z"/>
		<polygon class="st0" points="13.6,58.2 13.7,58.2 13.7,58.2 		"/>
		<path class="st0" d="M80.8,59.4C80.8,59.4,80.8,59.4,80.8,59.4C80.8,59.4,80.8,59.4,80.8,59.4C80.8,59.4,80.8,59.4,80.8,59.4z"/>
		<polygon class="st0" points="48.3,45.1 48.3,45 48.3,45 48.3,45 		"/>
		<path class="st0" d="M48.3,45.1C48.3,45.1,48.3,45.1,48.3,45.1C48.3,45.1,48.3,45.1,48.3,45.1C48.3,45.1,48.3,45.1,48.3,45.1z"/>
		<path class="st0" d="M51.9,45.1C51.9,45.1,51.8,45.1,51.9,45.1L51.9,45.1C51.8,45.1,51.8,45.1,51.9,45.1z"/>
		<polygon class="st0" points="12.6,60.8 12.7,60.8 12.7,60.8 		"/>
		<polygon class="st0" points="55,57.9 55,57.9 55,57.9 		"/>
		<path class="st0" d="M55,57.9C55,57.9,55,57.9,55,57.9C55,57.9,55,57.9,55,57.9C55,57.9,55,57.9,55,57.9z"/>
		<polygon class="st0" points="55,57.9 55,57.9 55,57.9 		"/>
		<path class="st0" d="M77.1,62.4C77.1,62.4,77.1,62.4,77.1,62.4C77.1,62.4,77.1,62.4,77.1,62.4C77.1,62.4,77.1,62.4,77.1,62.4
			C77.1,62.4,77.1,62.4,77.1,62.4z"/>
		<path class="st0" d="M27.6,46.7C27.6,46.7,27.6,46.6,27.6,46.7C27.6,46.6,27.6,46.6,27.6,46.7C27.6,46.6,27.6,46.7,27.6,46.7z"/>
		<polygon class="st0" points="27.6,46.6 27.6,46.6 27.6,46.6 27.6,46.6 		"/>
		<path class="st0" d="M48.2,46.7C48.2,46.7,48.2,46.6,48.2,46.7C48.2,46.6,48.2,46.6,48.2,46.7C48.2,46.6,48.2,46.7,48.2,46.7z"/>
		<polygon class="st0" points="48.2,46.6 48.2,46.6 48.2,46.6 48.2,46.6 		"/>
		<path class="st0" d="M24.5,57.8C24.6,57.8,24.6,57.8,24.5,57.8C24.6,57.8,24.6,57.8,24.5,57.8C24.6,57.8,24.5,57.8,24.5,57.8z"/>
		<polygon class="st0" points="27.7,45.1 27.7,45 27.7,45 27.7,45 27.7,45 		"/>
		<path class="st0" d="M27.7,45.1C27.7,45.1,27.7,45.1,27.7,45.1C27.7,45.1,27.7,45.1,27.7,45.1C27.7,45.1,27.7,45.1,27.7,45.1z"/>
		<path class="st0" d="M90.8,63.2C90.8,63.2,90.8,63.2,90.8,63.2C90.8,63.2,90.8,63.2,90.8,63.2C90.8,63.2,90.8,63.2,90.8,63.2z"/>
		<polygon class="st0" points="90.8,63.2 90.8,63.2 90.8,63.2 		"/>
		<polygon class="st0" points="72.8,48.8 72.8,48.7 72.8,48.7 72.8,48.8 		"/>
		<path class="st0" d="M72.8,48.8C72.8,48.8,72.8,48.8,72.8,48.8C72.8,48.8,72.8,48.8,72.8,48.8C72.8,48.8,72.8,48.8,72.8,48.8z"/>
		<path class="st0" d="M56.6,57.3C56.6,57.3,56.6,57.3,56.6,57.3C56.6,57.3,56.6,57.3,56.6,57.3C56.6,57.3,56.6,57.3,56.6,57.3
			C56.6,57.3,56.6,57.3,56.6,57.3z"/>
		<polygon class="st0" points="35.7,56.3 35.7,56.3 35.7,56.3 		"/>
		<polygon class="st0" points="69,48.8 69,48.8 69,48.8 		"/>
		<path class="st0" d="M12.5,64.3C12.5,64.3,12.6,64.3,12.5,64.3C12.6,64.3,12.6,64.2,12.5,64.3C12.5,64.3,12.5,64.3,12.5,64.3z"/>
		<path class="st0" d="M59.5,57.3C59.5,57.3,59.5,57.3,59.5,57.3C59.5,57.3,59.5,57.3,59.5,57.3C59.5,57.3,59.5,57.3,59.5,57.3z"/>
		<polygon class="st0" points="59.5,57.3 59.5,57.3 59.5,57.3 59.5,57.3 		"/>
		<polygon class="st0" points="45.7,50.6 45.7,50.6 45.7,50.6 45.7,50.6 		"/>
		<path class="st0" d="M45.7,50.6C45.7,50.6,45.7,50.6,45.7,50.6C45.7,50.6,45.7,50.6,45.7,50.6C45.7,50.6,45.7,50.6,45.7,50.6z"/>
		<path class="st0" d="M66.3,50.6C66.3,50.6,66.3,50.6,66.3,50.6C66.3,50.6,66.3,50.6,66.3,50.6C66.3,50.6,66.3,50.6,66.3,50.6
			C66.3,50.6,66.3,50.6,66.3,50.6z"/>
		<path class="st0" d="M87.1,52.8C87.1,52.8,87.1,52.8,87.1,52.8C87.1,52.8,87.1,52.8,87.1,52.8C87.1,52.8,87.1,52.8,87.1,52.8z"/>
		<polygon class="st0" points="87.2,53.8 87.2,53.8 87.2,53.8 		"/>
		<path class="st0" d="M83.2,54.1C83.2,54.1,83.2,54,83.2,54.1C83.2,54,83.2,54,83.2,54.1C83.2,54,83.2,54,83.2,54.1
			C83.2,54,83.2,54.1,83.2,54.1z"/>
		<polygon class="st0" points="33.2,60.8 33.2,60.8 33.2,60.8 		"/>
		<path class="st0" d="M55,60.4C55.1,60.4,55.1,60.4,55,60.4C55.1,60.3,55.1,60.3,55,60.4C55.1,60.3,55,60.3,55,60.4z"/>
		<path class="st0" d="M45.1,57.8C45.1,57.8,45.2,57.8,45.1,57.8C45.2,57.8,45.2,57.8,45.1,57.8C45.1,57.8,45.1,57.8,45.1,57.8z"/>
		<path class="st0" d="M41.3,60.9C41.3,60.9,41.3,60.8,41.3,60.9C41.3,60.8,41.3,60.8,41.3,60.9C41.2,60.8,41.2,60.8,41.3,60.9
			C41.3,60.8,41.3,60.8,41.3,60.9z"/>
		<path class="st0" d="M41.4,64.3C41.4,64.3,41.4,64.3,41.4,64.3C41.4,64.3,41.3,64.3,41.4,64.3C41.3,64.3,41.4,64.3,41.4,64.3z"/>
		<path class="st0" d="M79.4,25.3c-0.2,0.1-0.4,0.3-0.5,0.6c-0.2,0.1-0.4,0.2-0.6,0.2c0,0.5,0,0.9,0.1,1.3c0.1,0.4,0,0.7-0.2,1
			c-0.3,0.4-0.2,0.8,0.1,1.1c0.1,0.1,0.3,0.3,0.5,0.4c-0.1,0.4-0.1,0.8,0.1,1.2c0,0.1,0.1,0.2,0.1,0.3c0,0.1,0.1,0.2,0.2,0.4
			c0.5,0.7,0.6,0.9,0.7,1.7c-0.2,0.1-0.4,0.2-0.6,0.3c-0.1,0.1-0.3,0.1-0.4,0.2c-0.3,0.2-0.3,0.5-0.2,0.7c0.1,0.2,0.3,0.3,0.5,0.5
			c0.2,0.1,0.4,0.2,0.5,0.3c0.4,0.2,0.6,0.5,0.5,1c0,0.3-0.1,0.5-0.1,0.8c0,0.4,0.1,0.7,0.4,0.9c0.3,0.3,0.5,0.5,0.8,0.8
			c0.3,0.2,0.3,0.5,0.1,0.8h-0.8c-8.1,0-16.2-0.1-24.4-0.1c-3.7,0-7.3,0-11,0c-0.8,0-1.6,0-2.4,0c-0.9,0-1.8-0.2-2.7-0.6
			C40,39,39.8,39,39.7,39c-0.3,0-0.7,0-1-0.1c-0.1-0.1-0.3-0.1-0.4-0.1c-1,0-2,0.2-2.8,0.9h-2.1c-1.6,0-3.2,0-4.8,0
			c-0.2,0-0.5,0.1-0.7-0.1c-0.1-0.8-0.1-0.8,0.5-1.3c0.1-0.1,0.2-0.3,0.2-0.5c0-0.1,0-0.2,0-0.3c0-0.5,0.2-0.8,0.7-1
			c0.3-0.1,0.5-0.2,0.8-0.1c0.3,0.1,0.6,0.1,0.9,0.1c0.3,0,0.6,0.1,0.8,0c0.6-0.1,0.9-0.3,1-0.9c0.1-0.2,0.1-0.4,0.2-0.6
			c0.1-0.2,0.3-0.3,0.6-0.1c0.2,0.1,0.3,0.4,0.5,0.4c0.2-0.2,0.3-0.3,0.5-0.5c0.3,0.1,0.3,0.5,0.7,0.5c0,0,0.1-0.1,0.1-0.1
			s0.1-0.1,0.1-0.1c0.4-0.3,0.7-0.3,1,0.1c0.1,0.2,0.2,0.4,0.3,0.6c0.1,0.2,0.1,0.4,0.3,0.7c0.1,0.3,0.4,0.4,0.7,0.4
			c0.1,0,0.2,0,0.3,0c0.3,0,0.5-0.1,0.5-0.4c0.1-0.2,0.1-0.4,0.1-0.6c0-0.4-0.1-0.8-0.1-1.2c-0.1-0.9,0.2-1.6,0.9-2.3
			c0.4-0.4,0.8-0.6,1.3-0.7c0.4-0.1,0.6-0.3,0.6-0.7c0-0.2,0-0.3,0-0.5c0-0.2,0.2-0.4,0.4-0.5c0.1,0,0.2-0.1,0.3-0.1
			c0.3-0.1,0.4-0.3,0.4-0.7c-0.1-0.8,0.3-1.2,1.1-1.3c0.2,0,0.4,0,0.6,0c0.3-0.1,0.5-0.2,0.5-0.6c0-0.2-0.1-0.5-0.1-0.7v-0.2
			c0.1-0.1,0.2-0.1,0.2-0.2c0.1-0.3-0.2-0.4,0-0.6c0,0,0,0,0.1,0c0.1,0,0.1-0.1,0.2-0.1c0.6,0,1-0.3,1.2-0.9
			c0.1-0.3,0.3-0.4,0.5-0.5c0.1,0,0.1-0.2,0.2-0.3c0.3-0.1,0.5-0.2,0.8-0.2c0.1,0,0.2,0,0.2,0.2c-0.6,0.2-0.5,0.9-0.8,1.4
			c0.5,0.2,0.9,0.1,1.2-0.1c0.3-0.2,0.5-0.4,0.6-0.7c0.2-0.4,0.5-0.6,0.9-0.7c0.4-0.1,0.7-0.3,0.9-0.6c-0.1-0.1-0.1-0.1-0.1-0.2
			c-0.2-0.5-0.5-0.7-1-0.6c-0.2,0-0.3,0.1-0.5,0.1c-0.1,0-0.3,0.1-0.4,0.1c-0.2,0-0.4,0-0.4-0.3c-0.1-0.3-0.3-0.4-0.5-0.4
			c-0.3,0-0.5,0.1-0.8,0.1c-0.2,0-0.3,0.1-0.5,0.1c0.3-0.7,0.3-0.6,1.1-0.8c0.3-0.1,0.6-0.1,0.9-0.1c0.4,0,0.8-0.1,1.2-0.1
			c0.2,0,0.4-0.1,0.6-0.3c0.1-0.2,0.3-0.3,0.5-0.5c0.3-0.2,0.5-0.3,0.9-0.2c-0.2,0.7-0.5,1.3-0.7,2c0.7-0.1,1.4-0.3,2.1-0.1
			c-0.1,0.1-0.1,0.2-0.2,0.3c0,0,0,0,0.1,0.1c0.3-0.2,0.5-0.4,0.8-0.6c0.2,0.2,0.3,0.3,0.5,0.4c0.1,0.1,0.2,0,0.3-0.1
			c0.1-0.1,0.2-0.3,0.1-0.4c0,0-0.1,0-0.1,0c-0.1,0-0.2,0.1-0.2,0.1c-0.3-0.2-0.5-0.3-0.7-0.5c0-0.1,0-0.2,0-0.3
			c-0.3-0.1-0.6-0.1-0.9-0.1c-0.3,0.1-0.6,0.1-0.8-0.1c0-0.3,0.3-0.4,0.2-0.7c-0.1,0-0.2-0.1-0.3-0.1c0.1-0.5,0-0.6-0.4-0.7
			c-0.2-0.1-0.4-0.1-0.5-0.1c-0.1,0-0.2,0-0.2-0.1c0-0.2-0.1-0.2-0.3-0.2c-0.3,0-0.6,0-1,0c-0.2-0.3-0.5-0.1-0.8-0.2
			c0-0.1,0-0.2,0-0.2c0-0.3,0-0.3-0.3-0.5c-0.4-0.1-0.8-0.3-1.3-0.5c-0.1,0.6-0.7,0.7-1.1,0.9c-0.3-0.3-0.9-0.3-0.9-0.8
			c-0.2,0-0.4,0-0.6-0.1c-0.2-0.2-0.5-0.2-0.9-0.2c-0.4,0.1-0.8,0.1-1.2,0.2c-0.1,0.3-0.4,0.5-0.3,0.8c0,0-0.1,0.1-0.2,0.2
			c-0.1,0.1-0.2,0.1-0.4,0.2c0.2,0.3,0.7,0.2,0.8,0.5c-0.4,0.6-0.4,0.6-1.5,1.1c0,0.5,0,1.1-0.1,1.6c0,0.2-0.1,0.5-0.2,0.6
			c-0.1,0.3-0.4,0.3-0.6,0c-0.1-0.2-0.2-0.5-0.4-0.7c-0.3-0.4-0.4-0.9-0.2-1.4c0,0,0-0.1,0-0.1c-0.3,0.1-0.6,0.2-1,0.1
			c-0.3,0-0.6-0.2-0.9-0.3c-0.9-0.3-0.9-0.3-1.8,0c-0.1-0.3-0.1-0.6-0.2-0.9c0.3-0.2,0.6-0.5,0.9-0.7c0.3-0.2,0.6-0.4,0.9-0.5
			c0.1,0,0.3-0.1,0.4-0.2c0.3-0.3,0.6-0.4,1-0.3c0.1,0,0.3,0,0.3,0c0.4-0.3,1-0.5,1.1-1.3c-0.4-0.1-0.6,0.4-1.1,0.3
			c0.1-0.2,0.2-0.3,0.3-0.5c-0.5,0.2-0.8,0.3-1,0.7c-0.1,0.2-0.2,0.3-0.5,0.4c-0.5,0-0.9,0.2-1.3,0.4c-0.1,0.1-0.3,0.1-0.5,0.1
			c-0.1,0-0.1,0-0.1-0.1c-1.7,0.9-3.3,1.9-4.9,3.1c0,0.1,0,0.1,0.1,0.2C31,21,30.8,21.1,30.7,21C24.5,25.8,20,32.6,18,40.4
			c0.5,0,1,0.1,1.4,0.1c3.9,0,7.9,0.1,11.8,0.1c4.9,0,9.8,0,14.7,0.1c7.1,0,14.2,0,21.3,0c2.7,0,5.5,0,8.2-0.1c1.9,0,3.9,0,5.8-0.1
			c1.4,0,2.7,0,4.1,0c0.7,0,1.4,0,2.1,0C86,34.8,83.2,29.6,79.4,25.3z M49.9,19.3C49.9,19.3,50,19.3,49.9,19.3c0.1,0.1,0,0.1,0,0.1
			c0,0-0.1,0-0.1-0.1C49.8,19.3,49.9,19.3,49.9,19.3z M45.7,21.9c0.2-0.2,0.5-0.1,0.7,0c0,0,0,0.1-0.1,0.1c-0.4,0.2-0.8,0.4-1.2,0.7
			C45.2,22.3,45.5,22.2,45.7,21.9z M44.7,21.8c0.1,0,0.2,0,0.4,0.1C44.9,22,44.9,22,44.8,22c-0.1,0-0.2,0-0.2-0.1
			C44.6,21.9,44.7,21.8,44.7,21.8z M43.3,21.3c0.2,0.3,0.1,0.5-0.1,0.8c-0.2-0.2-0.3-0.3-0.4-0.3C42.9,21.5,43.1,21.4,43.3,21.3z
			 M42.6,22.6c0,0,0.1,0.1,0.2,0.1c-0.1,0.1-0.2,0.1-0.2,0.2c-0.1,0-0.2-0.1-0.2-0.2C42.4,22.6,42.5,22.6,42.6,22.6z M42,20.2
			c0.1,0.2,0,0.4-0.2,0.4c-0.2,0.1-0.3-0.1-0.4-0.2C41.5,20.3,41.7,20.2,42,20.2z M35.6,22.8c0.3,0,0.3,0.2,0.4,0.4
			c-0.2,0.2-0.4,0.2-0.7,0.2C35.4,23.1,35.5,22.9,35.6,22.8z M34.7,23.1c-0.3,0.3-0.4,0.3-0.7-0.2C34.3,23,34.5,23,34.7,23.1z
			 M33.8,24.7c0.1-0.1,0.1-0.1,0.2-0.2c0.7-0.3,1.4-0.7,2.1-1c0.3-0.1,0.4-0.1,0.7,0.1c0.2,0.3,0.5,0.5,0.5,0.9
			c0.3,0.1,0.6,0,0.9-0.1c0.4-0.2,0.8-0.1,1.2,0.2c0,0.1,0.1,0.3,0.1,0.5c-0.2,0-0.4,0-0.6-0.1c-0.3,0.1-0.3,0.4-0.4,0.6
			c-0.1,0.1-0.1,0.3-0.2,0.4c-0.1,0.2-0.3,0.1-0.4-0.1c-0.1-0.2-0.2-0.2-0.4-0.1c-0.1-0.1,0-0.2,0.1-0.3c0-0.1,0.1-0.3,0-0.4
			C37.4,25,37.2,24.9,37,25c-0.1,0.1-0.2,0.1-0.3,0.2c-0.2,0.1-0.3,0.3-0.5,0.4c-0.3,0.2-0.3,0.4-0.3,0.6c0.1,0.4-0.1,0.6-0.3,0.9
			c-0.1,0.1-0.2,0.1-0.4,0.2c-0.2-0.7-0.1-1.3,0.1-1.9c0-0.1,0.1-0.2,0.2-0.3c0.3-0.2,0.6-0.4,1-0.5c0.1,0,0.2-0.1,0.4-0.1
			c0-0.1,0-0.1,0-0.2c-0.3,0.1-0.6,0.2-0.9,0.1c-0.3-0.1-0.6,0-1,0.1c-0.3,0.1-0.6,0.1-1,0.2c0,0-0.1,0-0.1,0c0,0-0.1-0.1-0.1-0.1
			C33.8,24.8,33.8,24.7,33.8,24.7z M33.1,23.8c0.1,0.1,0.1,0.1,0,0.2c-0.1,0.1-0.2,0.1-0.3,0c-0.1,0-0.1-0.1-0.2-0.1
			c0.1-0.1,0.1-0.2,0.2-0.2C32.9,23.7,33.1,23.7,33.1,23.8z M32.5,23.3c-0.1-0.3-0.2-0.6-0.2-0.8c0-0.1,0-0.3,0.2-0.3
			c0.1-0.1,0.3,0,0.3,0.1C32.9,22.6,32.8,22.9,32.5,23.3z M32.3,20.6c0-0.1,0.1-0.1,0.2-0.2c0.1,0,0.3,0.2,0.3,0.3
			c-0.1,0.3-0.2,0.5-0.6,0.6C32.2,21.1,32.2,20.9,32.3,20.6z M31.7,22.5c0.1,0.4,0.3,0.9,0,1.3C31.8,23.4,31.4,23,31.7,22.5z
			 M36.1,39.7c0-0.1,0-0.2,0.1-0.2c0.2-0.1,0.5-0.2,0.7-0.3c0.3-0.1,0.5-0.2,0.6,0.1c0,0.1,0.1,0.1,0.2,0.1c0.1,0,0.3,0,0.4,0
			c0.3,0,0.5,0,0.8,0.2C38,39.8,36.6,39.8,36.1,39.7z M39.7,39.7C39.7,39.7,39.6,39.7,39.7,39.7c0-0.1,0-0.1,0-0.1
			C39.7,39.6,39.8,39.7,39.7,39.7C39.8,39.7,39.7,39.7,39.7,39.7z"/>
		<path class="st0" d="M31.2,45.1C31.2,45.1,31.2,45.1,31.2,45.1C31.3,45.1,31.3,45.1,31.2,45.1C31.3,45.1,31.2,45.1,31.2,45.1z
			 M34.4,57.8C34.4,57.9,34.4,57.9,34.4,57.8C34.4,57.9,34.4,57.8,34.4,57.8z M62.4,50.6C62.4,50.6,62.5,50.6,62.4,50.6
			C62.4,50.6,62.4,50.6,62.4,50.6z M91.4,66c-0.9,0-1.8,0-2.7,0c-0.6,0-1.2-0.1-1.8-0.1c-0.6,0-1.2,0-1.8,0c-0.3,0-0.5,0-0.8,0
			c-0.5,0-1,0-1.5,0c-0.5,0-0.9,0-1.4,0c-1.4,0-2.7-0.1-4.1,0c-1.3,0-2.6-0.1-3.9-0.1c-0.1,0-0.1,0-0.2,0c-0.4-0.5-0.8-1-1.3-1.5
			c0,0,0-0.1-0.1-0.1c0.2,0,0.4,0.2,0.6,0.3c0.9,0.4,1.8,0.8,2.8,1.3c0,0,0.1,0,0.1,0.1h1.3c-0.3-0.3-0.6-0.6-0.9-0.9
			c-1.3-1.2-2.6-2.4-3.9-3.5c-0.1-0.1-0.2-0.2-0.2-0.4c0-0.1,0-0.1,0.2-0.1c1.4,0.4,2.8,0.8,4.1,1.2c0.3,0.1,0.7,0.2,1,0.3
			c0,0,0-0.1-0.1-0.1c-1.7-1.3-3.5-2.7-5.2-4c-0.1-0.1-0.2-0.2-0.2-0.3c0-0.1,0-0.2-0.1-0.4c0-0.5-0.1-0.9-0.1-1.4
			c0,0,0.1,0,0.1,0.1c1.2,1.1,2.4,2.2,3.6,3.2c0.2,0.2,0.4,0.4,0.6,0.5c0,0,0,0,0,0c0,0,0,0,0,0c0,0,0-0.1,0-0.1c-1.4-2-2.8-4-4.2-6
			c-0.1-0.2-0.2-0.4-0.2-0.6c0-0.1,0-0.1,0.1-0.1l2.8,1.3c0.4,0.2,0.9,0.4,1.3,0.6c0,0,0,0,0.1,0c0,0,0,0,0,0c0,0,0-0.1-0.1-0.1
			c-0.4-0.4-0.8-0.9-1.2-1.3c-1-1.1-2-2.1-3-3.2c-0.1-0.2-0.2-0.3-0.1-0.5c0,0,0.1,0,0.1,0.1c0.7,0.3,1.5,0.7,2.2,1
			c0.3,0.1,0.6,0.3,0.9,0.4c0,0,0,0,0,0c0,0,0-0.1-0.1-0.1c-0.6-0.7-1.3-1.4-1.9-2c-0.3-0.4-0.7-0.7-1-1.1l0,0c0,0,0,0,0,0
			c0.2,0.1,0.4,0.2,0.7,0.3c0.2,0.1,0.4,0.2,0.7,0.3c0,0,0,0,0-0.1c-0.5-0.5-1.1-1.1-1.6-1.7c0,0-0.1-0.1-0.1-0.1c0-0.3,0-0.7-0.1-1
			c0.6,0.5,1.1,0.9,1.6,1.4c0-0.1,0-0.1-0.1-0.2c-0.5-1-1-2-1.5-3c0-0.1-0.1-0.2-0.1-0.2S70.9,44,70.8,44c-0.3,0.5-0.6,1.1-0.9,1.6
			c-0.3,0.5-0.6,1-0.8,1.5c0,0,0,0,0,0c0.3-0.2,0.6-0.4,0.9-0.7c0.3-0.2,0.5-0.4,0.8-0.6c0,0.3,0,0.6,0,0.9c0,0.1-0.1,0.2-0.1,0.3
			c-0.5,0.5-1,1-1.4,1.5c-0.1,0.1-0.2,0.1-0.2,0.3c0.1-0.1,0.2-0.1,0.3-0.1c0.4-0.2,0.8-0.4,1.3-0.5c0,0,0,0,0,0c0,0,0,0,0,0
			c-0.3,0.3-0.6,0.6-0.9,0.9c-0.7,0.7-1.3,1.3-2,1.9c-0.1,0.1-0.3,0.3-0.4,0.4c0.1,0,0.1,0,0.1,0c0.7-0.3,1.3-0.6,2-0.8
			c0.4-0.2,0.8-0.3,1.2-0.5c0,0,0.1-0.1,0.1,0c0,0.2,0,0.4-0.1,0.6c-1,1-2,2-3,3c-0.1,0.1-0.1,0.1-0.2,0c-0.5-0.6-1.1-1.1-1.6-1.7
			c-0.3-0.3-0.5-0.6-0.8-0.9c0,0,0,0,0,0c0.5,0.2,1,0.4,1.5,0.6c0-0.1-0.1-0.1-0.1-0.2c-0.5-0.5-0.9-1-1.4-1.4
			c-0.3-0.3-0.2-0.5-0.2-0.9c0,0,0.1,0,0.1,0.1c0.3,0.3,0.7,0.6,1,0.9c0.2,0.2,0.4,0.3,0.6,0.5c0,0,0-0.1,0-0.1
			c-0.6-1.2-1.2-2.3-1.7-3.5c0,0,0-0.1-0.1-0.1c0,0,0,0.1-0.1,0.1c-0.4,0.8-0.9,1.6-1.3,2.4c-0.2,0.4-0.5,0.8-0.6,1.2
			c0,0,0.1,0,0.1,0c0.5-0.4,0.9-0.7,1.4-1.1c0.1-0.1,0.3-0.2,0.5-0.3v0.5c0,0.1,0,0.1-0.1,0.2c-0.3,0.3-0.6,0.6-0.9,0.9
			c-0.3,0.4-0.7,0.7-1,1.1c0,0,0,0,0,0c0,0,0,0,0.1,0c0.5-0.3,1.1-0.5,1.6-0.8c0,0.1-0.1,0.1-0.1,0.2c-0.7,0.7-1.5,1.5-2.2,2.3
			c-0.1,0.1-0.3,0.2-0.3,0.4c0,0,0,0,0,0c0,0,0,0,0,0c0,0,0.1,0,0.1,0c0.9-0.4,1.7-0.8,2.6-1.1c0.1,0,0.1-0.1,0.2,0
			c0,0.1,0,0.2,0,0.2L64.2,53c-0.6,0.6-1.1,1.1-1.7,1.7c-0.8,0.8-1.6,1.6-2.4,2.4c0,0-0.1,0-0.1,0.1c0,0,0.1,0,0.1,0
			c0.9-0.4,1.9-0.8,2.8-1.2c0.4-0.2,0.8-0.3,1.1-0.5c0.1,0,0.1-0.1,0.1,0c0,0.1,0,0.3-0.1,0.4c-0.3,0.3-0.6,0.6-0.9,1
			c-0.9,0.9-1.7,1.8-2.6,2.7c-0.1,0.1-0.2,0.1-0.3,0c-0.2-0.2-0.4-0.3-0.5-0.5c-0.4-0.4-0.8-0.7-1.2-1.1c0,0,0,0,0,0l0,0
			c0,0,0,0,0,0c0.3,0.1,0.7,0.3,1.1,0.4c-0.1-0.1-0.1-0.1-0.1-0.1c-0.4-0.3-0.8-0.7-1.1-1c-0.1-0.1-0.1-0.1-0.2-0.2
			c0-0.2,0-0.4,0-0.7c0.1,0,0.1,0.1,0.2,0.1c0.4,0.3,0.8,0.6,1.1,0.8c0,0,0-0.1,0-0.1c-0.4-0.7-0.9-1.5-1.3-2.2
			c-0.1-0.1-0.1-0.1-0.2,0c-0.3,0.5-0.7,1-1,1.5c-0.2,0.3-0.4,0.5-0.5,0.8c0.3-0.1,0.5-0.3,0.8-0.5c0.2-0.1,0.4-0.3,0.7-0.4V57
			c0,0.1,0,0.1-0.1,0.1c-0.3,0.2-0.5,0.4-0.8,0.7c-0.2,0.2-0.4,0.4-0.7,0.6c0.1,0,0.2,0,0.2-0.1c0.3-0.1,0.7-0.3,1-0.4c0,0,0,0,0,0
			l0,0c0,0,0,0,0,0c-0.6,0.5-1.3,1.1-1.9,1.7c-0.1,0.1-0.1,0-0.2,0c-1.5-1.2-3.1-2.4-4.7-3.6c-0.1-0.1-0.2-0.2-0.2-0.3
			c0-0.3-0.1-0.7-0.1-1c0-0.3-0.1-0.5-0.1-0.8c0.1,0.1,0.1,0.1,0.2,0.1c1,0.9,2,1.8,3,2.7c0.4,0.3,0.8,0.7,1.2,1.1c0,0,0,0,0,0
			c0,0,0,0,0,0c0-0.1-0.1-0.1-0.1-0.2c-1.4-2-2.8-3.9-4.1-5.9c-0.1-0.2-0.2-0.3-0.2-0.5c0-0.2,0-0.2,0.2-0.1c1.1,0.5,2.1,1,3.2,1.4
			c0.3,0.1,0.6,0.3,1,0.4c0,0,0,0,0,0h0c0,0,0,0,0,0c0,0-0.1-0.1-0.1-0.1c-0.5-0.5-0.9-1-1.4-1.5c-0.9-1-1.9-2-2.9-3
			c-0.1-0.1-0.1-0.2-0.1-0.3c0-0.2,0-0.2,0.2-0.1c0.9,0.4,1.7,0.8,2.6,1.2c0.1,0.1,0.3,0.1,0.5,0.2c0,0,0,0,0,0c-1-1.1-2-2.1-3-3.2
			c0.1,0,0.1,0,0.1,0c0.4,0.1,0.7,0.3,1.1,0.5c0,0,0,0,0,0c0,0,0,0,0,0l0,0c0-0.1-0.1-0.1-0.1-0.1c-0.4-0.5-0.9-0.9-1.3-1.3
			c-0.2-0.2-0.4-0.4-0.3-0.7c0,0,0-0.1,0-0.1c0-0.2,0-0.4,0-0.6c0.2,0.2,0.5,0.4,0.7,0.6c0.3,0.3,0.6,0.5,0.9,0.8h0
			c0-0.1,0-0.1-0.1-0.2c-0.4-0.9-0.9-1.8-1.3-2.7c-0.1-0.2-0.2-0.4-0.3-0.6c-0.1,0.1-0.2,0.3-0.2,0.4c-0.5,0.9-1,1.9-1.6,2.8
			c0,0.1-0.1,0.1-0.1,0.2c0.6-0.4,1.1-0.9,1.7-1.3v0.9c0,0.1,0,0.2-0.1,0.2c-0.2,0.3-0.5,0.5-0.7,0.7c-0.3,0.3-0.7,0.7-1,1
			c0.1,0,0.3-0.1,0.4-0.1c0.4-0.1,0.7-0.3,1.1-0.5c0,0,0,0,0,0c0,0,0,0,0,0c-0.2,0.2-0.5,0.5-0.7,0.7c-0.7,0.7-1.5,1.4-2.2,2.1
			c-0.1,0.1-0.3,0.3-0.5,0.4c0.1,0,0.1,0,0.1,0c0.5-0.2,1.1-0.5,1.6-0.7c0.5-0.2,1-0.4,1.6-0.7c0.1,0,0.1-0.1,0.1,0
			c0,0.2,0.1,0.4-0.1,0.6c-1.1,1.1-2.1,2.1-3.2,3.2c-0.3,0.3-0.5,0.5-0.8,0.8c-0.1,0.1-0.1,0.1-0.2,0c-0.1-0.2-0.3-0.3-0.4-0.5
			c-0.3-0.3-0.6-0.6-0.9-0.9c0,0,0,0,0,0c0.5,0.2,1,0.4,1.5,0.6c0-0.1-0.1-0.1-0.1-0.2c-0.5-0.5-0.9-1-1.4-1.4
			C44,49.8,44,49.5,44,49.2c0,0,0.1,0,0.1,0.1c0.3,0.3,0.7,0.6,1,0.9c0.2,0.2,0.4,0.3,0.6,0.5c0,0,0-0.1,0-0.1
			c-0.6-1.2-1.1-2.3-1.7-3.5c0,0,0-0.1-0.1-0.1c0,0,0,0.1-0.1,0.1c-0.4,0.8-0.9,1.6-1.3,2.4c-0.2,0.4-0.4,0.8-0.6,1.2
			c0,0,0.1,0,0.1,0c0.5-0.4,0.9-0.7,1.4-1.1c0.1-0.1,0.3-0.2,0.5-0.3v0.5c0,0.1,0,0.1-0.1,0.2c-0.3,0.3-0.6,0.6-0.9,0.9
			c-0.3,0.4-0.7,0.7-1,1.1c0,0,0,0,0,0c0.5-0.3,1.1-0.5,1.6-0.8c0,0.1-0.1,0.1-0.1,0.1c-0.7,0.7-1.5,1.5-2.2,2.3
			c-0.1,0.1-0.3,0.2-0.3,0.4c0,0,0,0,0,0c0,0,0,0,0,0c0,0,0.1,0,0.1,0c0.9-0.4,1.7-0.8,2.6-1.1c0.1,0,0.1-0.1,0.2-0.1
			c0.1,0.1,0,0.2,0,0.3c0,0,0,0.1-0.1,0.1c-0.4,0.4-0.8,0.9-1.3,1.3c-0.8,0.8-1.6,1.6-2.4,2.4c-0.2,0.2-0.4,0.4-0.5,0.6
			c0.1,0,0.1,0,0.1,0c0.8-0.4,1.6-0.7,2.4-1.1c0.5-0.2,1-0.4,1.5-0.7c0,0,0.1-0.1,0.1,0c0,0.1,0,0.3-0.1,0.4c-0.3,0.3-0.7,0.7-1,1
			c-0.8,0.9-1.7,1.7-2.5,2.6c-0.1,0.1-0.1,0.1-0.2,0c-0.7-0.7-1.4-1.3-2.1-1.9c-0.1-0.1-0.2-0.2-0.1-0.4c0.4,0.1,0.8,0.3,1.2,0.5
			c0.5,0.2,1,0.4,1.5,0.5c0,0,0,0,0,0c-0.5-0.5-1-0.9-1.6-1.4c-0.3-0.3-0.6-0.6-0.9-0.8c0,0,0,0,0,0c0.3,0.1,0.7,0.3,1.1,0.4
			c0-0.1-0.1-0.1-0.1-0.2c-0.4-0.3-0.8-0.7-1.2-1c0,0-0.1-0.1-0.1-0.1c0-0.2-0.1-0.5,0-0.7c0.1,0,0.1,0.1,0.2,0.1
			c0.4,0.3,0.7,0.6,1.1,0.8c0,0,0,0,0,0c0,0,0-0.1,0-0.1c-0.3-0.4-0.5-0.9-0.8-1.3c-0.2-0.3-0.4-0.7-0.6-1c-0.5,0.8-1.1,1.6-1.6,2.4
			c0,0,0,0,0,0c0.5-0.3,0.9-0.6,1.4-0.9v0.7c0,0.1,0,0.1-0.1,0.1c-0.3,0.3-0.7,0.6-1,0.9c-0.1,0.1-0.2,0.2-0.4,0.3c0,0,0,0,0,0.1
			c0.4-0.1,0.8-0.3,1.2-0.4c0,0,0,0,0,0c-0.9,0.8-1.8,1.5-2.7,2.3c0,0,0.1,0,0.1,0c0.8-0.3,1.7-0.6,2.5-0.9c0.1,0,0.2-0.1,0.2,0
			c0.1,0.1,0,0.2,0,0.3c0,0-0.1,0.1-0.1,0.1c-0.7,0.6-1.4,1.2-2.1,1.8c-0.1,0.1-0.1,0.1-0.2,0c-1.4-1.1-2.9-2.2-4.3-3.3
			c-0.1-0.1-0.2-0.2-0.2-0.3c0-0.3-0.1-0.7-0.1-1c0-0.2-0.1-0.5-0.1-0.8c0.1,0.1,0.1,0.1,0.2,0.1c1.1,1,2.3,2,3.4,3
			c0.3,0.2,0.5,0.5,0.8,0.7c0,0,0,0,0.1,0.1v0c0,0,0-0.1,0-0.1c-0.3-0.4-0.6-0.9-0.9-1.3c-1.1-1.6-2.2-3.1-3.3-4.7
			C30,51.5,30,51.3,30,51.1c0,0,0.1,0,0.1,0c1.1,0.5,2.1,1,3.2,1.5c0.3,0.1,0.7,0.3,1,0.4c0,0,0,0,0,0c0,0,0,0,0,0
			c0,0-0.1-0.1-0.1-0.1c-0.5-0.5-0.9-1-1.4-1.5c-0.9-1-1.9-2-2.8-3c-0.1-0.1-0.1-0.2-0.1-0.3c0-0.1,0-0.1,0.2-0.1c1,0.5,2,0.9,3,1.3
			c0,0,0.1,0.1,0.1,0c-1-1.1-2-2.2-3-3.2c0.1,0,0.1,0,0.1,0c0.4,0.2,0.7,0.3,1.1,0.5c0,0,0,0,0,0s0,0,0,0l0,0c0-0.1-0.1-0.1-0.1-0.1
			c-0.4-0.5-0.9-0.9-1.3-1.3c-0.2-0.2-0.4-0.4-0.3-0.7c0,0,0-0.1,0-0.1v-0.6c0.2,0.2,0.5,0.4,0.7,0.6c0.3,0.3,0.6,0.5,0.9,0.8
			c0-0.1,0-0.1-0.1-0.2c-0.4-0.9-0.9-1.8-1.3-2.7c-0.1-0.2-0.2-0.4-0.3-0.6c-0.1,0.1-0.2,0.3-0.3,0.4c-0.5,0.9-1,1.9-1.5,2.8
			c0,0.1-0.1,0.1-0.1,0.2c0.6-0.4,1.1-0.9,1.7-1.3v0.9c0,0.1,0,0.2-0.1,0.2c-0.3,0.3-0.5,0.5-0.7,0.7c-0.3,0.3-0.7,0.7-1,1
			c0.1,0,0.3-0.1,0.4-0.1c0.4-0.1,0.8-0.3,1.1-0.5c0,0,0,0,0,0l0,0c-0.2,0.2-0.5,0.5-0.7,0.7c-0.7,0.7-1.4,1.4-2.2,2.1
			c-0.2,0.1-0.3,0.3-0.5,0.4c0,0,0.1,0,0.1,0c0.5-0.2,1.1-0.5,1.6-0.7c0.5-0.2,1-0.4,1.6-0.7c0.1,0,0.1-0.1,0.1,0
			c0.1,0.1,0,0.5-0.1,0.5c-0.8,0.8-1.6,1.6-2.4,2.4c-0.7,0.7-1.4,1.4-2.1,2c0,0-0.1,0.1-0.1,0.1c0,0,0,0,0,0c1.5-0.6,3-1.3,4.5-1.9
			c0,0,0,0,0,0c0,0.5,0,1,0,1.5c0,0.1,0,0.1-0.1,0.2c-1.3,1.4-2.6,2.7-3.8,4.1c-0.3,0.3-0.5,0.5-0.7,0.8c0,0,0,0,0,0
			c0.1,0,0.1-0.1,0.2-0.1c1.4-0.8,2.8-1.5,4.2-2.3c0.1,0,0.1-0.1,0.2-0.1V56c0,0.1-0.1,0.2-0.2,0.3c-0.5,0.4-1,0.9-1.6,1.3
			c-0.9,0.7-1.7,1.4-2.6,2.2c-0.5,0.4-1,0.8-1.5,1.3c0,0,0,0,0,0c0.1,0,0.1,0,0.2-0.1c1.1-0.4,2.2-0.9,3.3-1.3
			c0.7-0.3,1.4-0.6,2.1-0.8c0.1,0,0.1-0.1,0.1,0c0,0.1,0,0.1,0,0.2c0,0,0,0-0.1,0c-1,0.8-1.9,1.6-2.9,2.4c-0.9,0.7-1.8,1.5-2.6,2.2
			c-0.3,0.3-0.6,0.5-0.9,0.8c0,0,0,0-0.1,0c0,0,0,0,0,0c0,0,0,0,0,0c0,0,0.1,0,0.1,0c1.6-0.6,3.2-1.1,4.8-1.7c0.1,0,0.2-0.1,0.3-0.1
			c-0.5,0.6-0.9,1.2-1.3,1.8c-0.3,0.4-0.7,0.9-1,1.3h2.1c0.4-0.2,0.8-0.5,1.2-0.7c0.1,0.3,0,0.5-0.2,0.7h2.1c-0.1-0.2,0-0.4,0-0.6
			c0.4,0.2,0.8,0.4,1.1,0.6h2.7c0.6-0.2,1.2-0.4,1.8-0.6c0.2-0.1,0.4-0.1,0.6-0.2v0.6c0,0.1-0.2,0.1-0.2,0.2h0.9c-0.6,0-1.1,0-1.7,0
			c-1,0-2.1,0-3.1,0c-0.1,0-0.3,0-0.4,0c-0.6,0-1.1,0-1.7,0c-0.5,0-1,0-1.5,0.1c-0.3,0-0.7,0-1,0c-0.6,0-1.1,0-1.7,0
			c-0.3,0-0.7,0-1.1,0c-1.4,0-2.8,0-4.2,0c-0.7,0-1.5,0-2.2,0c-1.4,0-2.7,0.1-4.1,0.1c-1.3,0-2.6,0-3.9,0.1c-1.1,0-2.2,0.1-3.3,0.1
			c2.5,0.1,5,0.1,7.4,0.2c2.1,0,4.3,0.1,6.4,0.1c3.8,0,7.5,0.1,11.3,0.1c4.7,0,9.4,0,14.2,0.1c0.4,0,0.7,0,1.1,0.1
			c0.3,0,0.5,0.1,0.7,0.3c0.2,0.2,0.4,0.3,0.7,0.3c0.2,0,0.4,0.2,0.5,0.4c0.5,1.1,0.6,2.2,0.3,3.4c0.3,0.7,0.5,1.3,0.4,2.1
			c0,0.1,0,0.2,0,0.3c0,0.3,0,0.5-0.1,0.7c-0.1,0.2-0.1,0.4,0,0.7c0.1,0.2,0.1,0.4,0.1,0.5c-0.1,0.3,0,0.5,0.1,0.7
			c0.1,0.3,0.2,0.5,0.2,0.8c-0.1,0.9-0.1,1.8-0.6,2.6c0.2,0.3,0.3,0.6,0.4,0.9c0,0.1,0,0.1,0,0.2c-0.2,0.3-0.2,0.6-0.1,0.9
			c0.1,0.2,0.1,0.5-0.1,0.7c0,0.1,0,0.2,0,0.2c0.2,0,0.3-0.1,0.3-0.2c0.1-0.2,0.1-0.4,0.1-0.5c0-0.1,0.1-0.2,0.3-0.3
			c0.1,0.2,0.1,0.3,0.1,0.4c-0.1,0.5,0,0.9,0,1.4c0,0.1-0.1,0.2-0.1,0.3c-0.2-0.1-0.3-0.2-0.5-0.3c-0.1,0.2-0.2,0.3-0.3,0.5
			c0.2,0,0.4,0,0.6,0c-0.1,0.3,0,0.6-0.3,0.7c0,0,0,0,0.1,0.1c0.1,0.1,0.1,0.1,0.2,0.2c0.3,0.5,0.4,0.5,0.9,0.7
			c0.1,0,0.1,0.1,0.2,0.1c-0.1,0.1-0.1,0.2-0.2,0.4c0.5,0.1,0.9,0.3,1.3,0.1c0.2,0.1,0.4,0.3,0.5,0.3c0.7,0.1,1.4,0,2.1-0.3
			c-0.2-0.1-0.4-0.2-0.5-0.2c-0.3,0-0.5-0.1-0.7-0.4c-0.1-0.1-0.2-0.2-0.3-0.3c-0.1-0.2-0.1-0.3,0.1-0.4c0.1-0.1,0.3-0.1,0.4-0.1
			c0,0,0-0.1,0-0.1c0-0.3,0.2-0.5,0.5-0.6c0.1,0,0.2-0.1,0.2-0.2c0.1-0.1,0.1-0.2,0.2-0.4c-0.3,0-0.6,0-0.8-0.3
			c0.1-0.3,0.3-0.6,0.6-0.7c0.2-0.1,0.3-0.2,0.4-0.3c0.1-0.1,0.2-0.2,0.3-0.3c0.4-0.3,0.5-0.7,0.5-1.1c0-0.1,0-0.1,0.1-0.2
			c0.1,0,0.3,0,0.4-0.1c0.1,0,0.3-0.1,0.4-0.1c0-0.1,0-0.1,0-0.2c0-0.1-0.1-0.1-0.1-0.2c-0.1-0.2,0.1-0.4,0.3-0.4c0.2,0,0.4,0,0.6,0
			c0.7,0,1.2-0.2,1.5-0.8c0.1-0.1,0.2-0.2,0.3-0.3c0.1-0.1,0.3-0.2,0.5-0.3c0.1-0.1,0.3-0.3,0.3-0.4c0-0.1,0-0.2-0.1-0.4
			c0.1-0.1,0.3-0.1,0.4-0.1c0.4-0.2,0.9-0.3,1.3-0.5c0.3-0.1,0.5-0.4,0.6-0.8c0-0.1,0-0.2,0.1-0.3c0.1-0.2,0.2-0.4,0.4-0.5
			c0.1,0.2,0.2,0.3,0.3,0.5c0.5-0.8,1.2-1.5,1.9-2c0.3-0.2,0.5-0.5,0.6-0.8c0.3-0.7,0.6-1.4,0.9-2.1c0.1-0.3,0.3-0.5,0.4-0.8
			c0.2-0.4,0.5-0.6,1-0.6c0.2,0,0.3,0,0.5,0c0.2,0,0.3,0,0.5,0c0.4,0,0.6-0.2,0.7-0.6c0.1-0.2,0.1-0.4,0.1-0.7
			c0.4-0.2,0.7-0.5,0.9-0.9c0.2-0.4,0.4-0.5,0.8-0.5c0.1,0,0.3,0,0.4,0c2.9,0,5.8,0,8.6-0.1c0.9,0,1.7,0,2.6,0
			c4.2-0.1,8.5-0.1,12.7-0.2c0.5,0,0.9,0,1.3,0C95.8,66.2,93.6,66.1,91.4,66z M35.2,64.3c-0.5,0.4-1.1,0.8-1.6,1.1
			c-0.1,0.1-0.1,0.1-0.2,0c-0.9-1.1-1.9-2.2-2.8-3.3c0,0,0,0,0-0.1l0,0c0,0,0,0,0,0c0.4,0.1,0.7,0.3,1.1,0.5
			c0.7,0.3,1.3,0.6,1.9,0.9c0.1,0.1,0.1,0.1,0,0.2c-0.2,0.2-0.3,0.4-0.5,0.6c0,0,0,0,0,0c0,0,0,0,0,0c0.3-0.1,0.7-0.3,1-0.4
			c0.1-0.1,0.2-0.1,0.3,0c0.2,0.1,0.5,0.2,0.7,0.3C35.3,64.2,35.3,64.2,35.2,64.3z M37,63c0,0.1,0,0.1-0.1,0.1
			c-0.4,0.3-0.7,0.5-1.1,0.8c-0.1,0.1-0.1,0.1-0.2,0c-0.2-0.2-0.4-0.3-0.5-0.5c0.5-0.2,0.9-0.4,1.4-0.7c0.1-0.1,0.3-0.1,0.4-0.2
			c0.1,0,0.1,0,0.1,0.1C37,62.7,37,62.9,37,63z M36.9,60c-0.8,0.9-1.6,1.8-2.4,2.7c-0.1,0.1-0.1,0.1-0.2,0c-1-0.9-1.9-1.8-2.9-2.7
			c-0.3-0.3-0.6-0.6-0.9-0.8c-0.1-0.1-0.1-0.3-0.1-0.5c0-0.1,0.1,0,0.1,0c0.4,0.1,0.7,0.2,1.1,0.3c0.9,0.3,1.9,0.5,2.8,0.8
			c-0.4,0.3-0.7,0.6-1.1,0.9c0,0,0,0,0,0c0.2-0.1,0.4-0.1,0.6-0.2c0.4-0.2,0.8-0.3,1.3-0.5c0.1,0,0.2,0,0.3,0c0.1,0,0.2,0.1,0.3,0.1
			c-0.1-0.1-0.1-0.1-0.2-0.2c0.5-0.2,1-0.4,1.5-0.5c0.1,0,0.1,0,0.1,0.1C37.1,59.7,37.1,59.9,36.9,60z M40.1,60.5
			c0.1-0.1,0.2-0.1,0.3,0c0.3,0.1,0.5,0.2,0.8,0.3l0,0c-0.1-0.2-0.3-0.3-0.5-0.5c-0.1-0.1-0.1-0.1,0-0.1c0.8-0.4,1.7-0.8,2.5-1.3
			c0,0,0.1,0,0.1,0c0,0,0,0,0,0l0,0c-0.2,0.2-0.4,0.4-0.6,0.7c-0.9,1-1.7,2-2.6,3c-0.1,0.1-0.1,0.1-0.2,0c-0.3-0.4-0.7-0.9-1-1.3
			c-0.1-0.1-0.1-0.1,0-0.2C39.3,60.9,39.7,60.7,40.1,60.5z M37.7,59.6C37.7,59.5,37.7,59.5,37.7,59.6c0.6,0.1,1.1,0.3,1.7,0.5
			c0.1,0,0.1,0.1,0,0.1c-0.2,0.2-0.5,0.5-0.7,0.7c-0.1,0.1-0.1,0-0.1,0c-0.3-0.3-0.5-0.7-0.8-1C37.7,59.8,37.7,59.7,37.7,59.6z
			 M37.9,62.8c0-0.1,0-0.1,0-0.2c0,0,0-0.1,0-0.1c0,0,0.1,0,0.1,0c0.5,0.2,0.9,0.5,1.3,0.7c0.1,0.1,0.1,0.1,0,0.2
			c-0.3,0.3-0.3,0.3-0.7,0.1c-0.2-0.1-0.4-0.3-0.7-0.4C37.9,63,37.9,63,37.9,62.8z M41.1,65.8h-0.4c-0.6,0-1.3,0-1.9,0
			c-0.2,0-0.3,0-0.5,0c0-0.1,0.1-0.1,0.1-0.1c0.2-0.1,0.4-0.2,0.5-0.3c0.2-0.2,0.5-0.2,0.7-0.1c0.5,0.1,0.9,0.2,1.4,0.3
			C41.1,65.7,41.2,65.7,41.1,65.8z M43.4,64c0,0.1,0,0.1-0.1,0.2c-0.5,0.4-1.1,0.8-1.6,1.2c-0.1,0-0.1,0.1-0.1,0
			c-0.4-0.3-0.7-0.5-1.1-0.7c0.3-0.1,0.5-0.2,0.7-0.4c0.1-0.1,0.2,0,0.2,0c0,0,0,0,0,0c-0.1-0.1,0-0.1,0.1-0.2
			c0.6-0.3,1.2-0.6,1.8-1c0.2-0.1,0.2-0.1,0.2,0.1C43.4,63.5,43.4,63.8,43.4,64z M44.5,60.1c0.1,0,0.2,0,0.3,0.1
			C44.7,60.3,44.7,60.3,44.5,60.1z M47.1,64.5c-0.2,0.2-0.3,0.5-0.5,0.7c-0.1,0.1-0.1,0.1-0.2,0c-0.5-0.3-1-0.6-1.5-1
			c-0.1,0-0.1-0.1-0.1-0.2c0-0.1,0-0.1,0.1-0.1c0.3-0.1,0.5-0.2,0.8-0.3c0.1,0,0.1,0,0.2,0c0.4,0.2,0.8,0.4,1.3,0.6
			C47.1,64.4,47.1,64.4,47.1,64.5z M45.1,60.6c0.2-0.1,0.3-0.1,0.5-0.2c0,0,0.1,0,0.1,0c0.6,0.1,1.2,0.2,1.8,0.4
			c-0.4,0.4-0.8,0.7-1.2,1c-0.1,0.1-0.1,0-0.1,0c-0.4-0.3-0.7-0.7-1.1-1C45,60.6,45,60.6,45.1,60.6z M48,63.3c0,0.1-0.1,0.1-0.1,0
			c-0.1-0.1-0.2-0.2-0.3-0.3c0.3-0.1,0.6-0.2,0.9-0.3C48.3,62.9,48.1,63.1,48,63.3z M48.7,65.5c0.1,0,0.1-0.1,0.2-0.1
			c0.1,0,0.3,0.1,0.4,0.1H48.7z M49.6,59c-0.1,0.1-0.1,0.1-0.2,0.1c-0.4,0.3-0.7,0.6-1.1,0.9c-0.1,0.1-0.1,0.1-0.2,0
			c-0.2-0.1-0.4-0.3-0.6-0.4c0.7-0.3,1.3-0.5,2-0.8c0,0,0.1-0.1,0.1,0C49.6,58.9,49.6,58.9,49.6,59z M49.7,56.1
			c0,0.1-0.1,0.1-0.1,0.1c-1,0.8-2,1.7-3,2.5c-0.1,0.1-0.1,0.1-0.2,0c-0.6-0.5-1.3-0.9-1.9-1.4c-0.1-0.1-0.1-0.1-0.1-0.2
			c0-0.5,0-1,0-1.5c0-0.2,0-0.2,0.2-0.1c0.6,0.3,1.2,0.5,1.8,0.8c0.1,0.1,0.1,0.1,0,0.2c-0.4,0.4-0.7,0.8-1.1,1.1
			c0,0-0.1,0.1-0.1,0.1c0,0,0,0,0,0c0.4-0.2,0.7-0.4,1.1-0.6c0.3-0.1,0.5-0.3,0.8-0.4c0.1-0.1,0.2,0,0.3,0c0.3,0.1,0.6,0.3,0.9,0.3
			c-0.2-0.2-0.4-0.4-0.6-0.7c0.7-0.4,1.4-0.8,2.1-1.2V56.1z M49.8,52.6c0,0.1,0,0.2-0.1,0.2c-0.9,1-1.8,1.9-2.7,2.9
			c-0.1,0.1-0.1,0-0.2,0c-0.6-0.6-1.2-1.2-1.8-1.8c-0.3-0.3-0.5-0.5-0.7-0.8c-0.1-0.1-0.2-0.2-0.2-0.4c0.2,0.1,0.4,0.2,0.6,0.2
			c0.7,0.3,1.3,0.6,1.9,0.9c0,0,0.1,0,0.1,0c0,0,0,0,0,0c0,0,0,0,0,0c-0.1-0.2-0.2-0.3-0.3-0.4c-0.2-0.2-0.4-0.4-0.6-0.7
			c0.4-0.1,0.7-0.3,1.1-0.5c0.9-0.4,1.8-0.8,2.7-1.1c0.2-0.1,0.2-0.1,0.2,0.1C49.8,51.7,49.8,52.2,49.8,52.6z M51.2,65.5v-0.3
			c0.2,0.1,0.4,0.2,0.6,0.3H51.2z M54.7,65.5H54c-0.2-0.3-0.4-0.5-0.7-0.8c-0.7-0.9-1.4-1.7-2.2-2.6c0,0,0,0,0-0.1l0,0c0,0,0,0,0,0
			c0.4,0.1,0.7,0.3,1.1,0.5c1.2,0.5,2.4,1.1,3.6,1.6c0,0,0,0,0.1,0C55.5,64.6,55.1,65.1,54.7,65.5z M57.4,65.5
			C57.4,65.5,57.4,65.5,57.4,65.5c-0.3,0-0.5,0-0.7,0h-0.8c0,0,0.1,0,0.1-0.1c0.5-0.2,1-0.5,1.5-0.7c0.1-0.1,0.1,0,0.2,0.1
			C57.8,65.1,57.7,65.3,57.4,65.5z M57.7,62.2c-0.5,0.5-0.9,1-1.4,1.6c-0.1,0.1-0.1,0.1-0.2,0c-0.4-0.4-0.8-0.7-1.2-1.1
			c0,0,0,0,0-0.1c0.4-0.2,0.9-0.3,1.3-0.5c0.5-0.2,1-0.4,1.5-0.5c0.2-0.1,0.2-0.1,0.2,0.1C57.9,62,57.8,62.1,57.7,62.2z M57.7,59.8
			c-0.9,0.8-1.9,1.6-2.9,2.4c0,0,0,0,0,0c-0.3,0.2-0.2,0.2-0.4,0c-1.1-1-2.2-2-3.4-3.1c-0.1-0.1-0.1-0.4-0.1-0.4c0-0.1,0.1,0,0.1,0
			c0.4,0.1,0.9,0.2,1.3,0.4c1,0.3,1.9,0.5,2.9,0.8c0.1,0,0.1,0,0.1,0.1c-0.1,0.1-0.2,0.2-0.3,0.3c0,0,0,0,0,0c0.1,0,0.3-0.1,0.4-0.1
			c0.2-0.1,0.4-0.1,0.6,0c0.1,0,0.1,0.1,0.2,0c-0.1-0.1-0.1-0.1-0.2-0.2c0.2-0.1,0.4-0.1,0.6-0.2c0.4-0.1,0.8-0.3,1.2-0.4
			c0.1,0,0.1,0,0.1,0.1C57.9,59.6,57.8,59.7,57.7,59.8z M63.9,59C63.9,59,63.9,58.9,63.9,59c0.1,0,0.1,0,0.1,0
			c-0.1,0.1-0.2,0.2-0.3,0.4c-0.8,0.9-1.6,1.8-2.4,2.7c-0.1,0.1-0.1,0.1-0.2,0c-0.3-0.3-0.7-0.7-1.1-1c-0.1-0.1-0.1-0.1,0-0.2
			C61.3,60.3,62.6,59.6,63.9,59z M58.4,59.3c0.4,0.1,0.7,0.3,1.1,0.4c0.2,0.1,0.4,0.1,0.6,0.2c0.1,0,0.1,0.1,0,0.1
			c-0.2,0.2-0.3,0.3-0.5,0.5c-0.1,0.1-0.1,0.1-0.1,0c-0.4-0.3-0.7-0.6-1.1-1C58.3,59.6,58.3,59.5,58.4,59.3z M58.7,64.9
			c0-0.1-0.1-0.1,0-0.2c0,0,0.1,0,0.1,0C58.8,64.8,58.7,64.8,58.7,64.9z M59.4,65.5c0.1-0.1,0.3-0.1,0.4-0.2c0,0,0.1,0,0.1,0
			c0.1,0.1,0.2,0.1,0.3,0.2C59.9,65.5,59.7,65.5,59.4,65.5z M59.9,63.5c-0.1,0.1-0.1,0.1-0.2,0c-0.4-0.5-0.8-1-1.2-1.5
			c0,0,0,0,0-0.1c0-0.1-0.1-0.3,0-0.3c0.1-0.1,0.2,0,0.2,0.1c0.7,0.3,1.3,0.5,2.1,0.8C60.5,62.9,60.2,63.2,59.9,63.5z M64,64
			c0,0.1-0.1,0.1-0.2,0.2c-0.6,0.4-1.1,0.8-1.7,1.3h-0.8c-0.1-0.1-0.2-0.2-0.3-0.4l-0.2-0.2c-0.1-0.1-0.1-0.1,0-0.2
			c0.7-0.3,1.3-0.7,2-1c0.3-0.2,0.6-0.3,0.9-0.5c0.2-0.1,0.2-0.1,0.2,0.1C64,63.5,64,63.8,64,64z M64.8,53c-0.1-0.1-0.1-0.2-0.1-0.3
			c0.4,0.2,0.7,0.3,1.1,0.5c0.5,0.2,0.9,0.4,1.4,0.6c0.1,0,0.1,0.1,0,0.2c-0.2,0.2-0.5,0.4-0.7,0.7c-0.1,0.1-0.1,0.1-0.2,0
			C65.9,54.1,65.4,53.6,64.8,53z M64.9,55.6c0-0.1,0-0.1,0.1-0.1c0,0,0.1,0,0.1,0.1c1.1,0.5,2.2,1,3.3,1.5c0.1,0.1,0.1,0.1,0,0.2
			c-0.5,0.5-0.9,1-1.4,1.5c-0.1,0.1-0.2,0.1-0.3,0c-0.6-0.4-1.1-0.9-1.7-1.3c-0.1-0.1-0.2-0.2-0.2-0.3
			C64.9,56.6,64.9,56.1,64.9,55.6z M65.1,60.1c0.9,0.2,1.7,0.3,2.6,0.5c-0.4,0.3-0.7,0.6-1.1,0.9c-0.1,0-0.1,0-0.1,0
			C66,61.1,65.6,60.6,65.1,60.1C65.1,60.1,65.1,60.1,65.1,60.1z M66.2,64.7c-0.1,0-0.1,0-0.1,0c-0.2-0.1-0.5-0.3-0.7-0.4
			c0,0-0.1-0.1-0.1-0.1c0-0.3,0-0.6,0-0.8c0-0.1,0-0.1,0.1-0.1c0.5,0.3,1.1,0.5,1.6,0.8C66.7,64.2,66.5,64.4,66.2,64.7z M69,65.2
			c-0.1,0.1-0.2,0.2-0.3,0.3h-1.4c0,0,0,0,0,0c0.2-0.1,0.4-0.2,0.6-0.2c0.3-0.1,0.5-0.2,0.8-0.3c0.1,0,0.1,0,0.2,0
			C69,65,69.1,65.1,69,65.2z M70.3,61.2c-0.7,0.6-1.4,1.2-2.1,1.8c-0.1,0.1-0.1,0.1-0.2,0c-0.3-0.3-0.5-0.5-0.8-0.8
			c0.5-0.2,1-0.4,1.5-0.6c0.5-0.2,0.9-0.4,1.4-0.6c0.1,0,0.1-0.1,0.2,0C70.4,61.1,70.4,61.1,70.3,61.2z M70.5,58.3
			c0,0.1-0.1,0.1-0.1,0.1c-0.6,0.5-1.2,1-1.8,1.5c0,0-0.1,0.1-0.1,0c-0.3-0.3-0.7-0.5-1-0.7c1-0.6,2-1.1,3-1.7
			C70.5,57.8,70.5,58,70.5,58.3z M70.5,54.9c-0.1,0.2-0.3,0.4-0.5,0.6c-0.4,0.5-0.9,0.9-1.3,1.4c-0.1,0.1-0.1,0.1-0.2,0
			c-0.6-0.6-1.2-1.3-1.8-1.9c-0.1-0.1-0.1-0.1,0-0.1c1-0.4,1.9-0.8,2.9-1.2c0.2-0.1,0.5-0.2,0.7-0.3c0.1-0.1,0.1,0,0.1,0.1v0.7
			C70.6,54.4,70.7,54.7,70.5,54.9z"/>
		<path class="st0" d="M50.6,84.1C50.6,84.1,50.6,84,50.6,84.1C50.6,84,50.5,84,50.6,84.1L50.6,84.1z"/>
		<path class="st0" d="M57.1,13.8c-0.3,0-0.5-0.1-0.8-0.1c-0.8,0-1.7,0-2.5-0.1c-0.9,0-1.9-0.1-2.8-0.1c-0.9,0-1.7,0.1-2.6,0.3
			c-0.9,0.2-1.8,0.3-2.7,0.5c-0.1,0-0.2,0-0.4,0.1c0.5,0,0.8,0.1,1,0c0.5-0.2,1-0.1,1.5-0.2c0.8-0.1,1.5,0.1,2.2,0.3
			c0,0.1-0.1,0.1-0.1,0.2c0.2,0,0.5,0,0.7,0c0,0.1,0,0.2-0.1,0.4c0.3,0.2,0.7,0.4,1.1,0.6c0.7,0.3,1.4,0.5,2.2,0.4
			c0.4,0,0.9,0,1.3,0.1c0.2,0.1,0.4,0.1,0.7-0.1c-0.1-0.3-0.3-0.5-0.4-0.7c-0.3-0.7-0.3-0.7,0.5-0.8c0,0,0,0,0.1,0
			c0.3,0,0.2-0.3,0.3-0.4c0.3-0.1,0.6-0.2,1-0.3C57.2,13.8,57.2,13.8,57.1,13.8z M50.2,14.4C50.2,14.4,50.2,14.4,50.2,14.4
			C50.1,14.4,50.1,14.4,50.2,14.4C50.2,14.4,50.2,14.4,50.2,14.4C50.3,14.4,50.2,14.4,50.2,14.4z"/>
		<path class="st0" d="M74.5,21.1c0.3,0.2,0.6,0.4,0.7,0.7c-0.3,0.3-0.7,0-1.1,0.2c0.1,0.1,0.2,0.2,0.3,0.2c0.2,0.1,0.4,0.2,0.5,0.3
			c0.3,0.2,0.4,0.4,0.5,0.7c0.4,1.1,1.4,1.9,2.7,2.1c0.2-0.4,0.1-0.7-0.2-1c-0.2-0.2-0.4-0.4-0.6-0.6c-0.3-0.2-0.4-0.5-0.4-0.8
			c0-0.2,0-0.3-0.1-0.5c-0.3-0.2-0.5-0.4-0.8-0.6c-0.8-0.6-1.6-1.1-2.3-1.7c-0.2-0.1-0.3-0.2-0.5-0.3c-0.2-0.1-0.2-0.1-0.6,0
			c0.1,0.1,0.2,0.1,0.2,0.2C73.3,20.4,73.9,20.8,74.5,21.1z"/>
		<path class="st0" d="M44,14.6C44,14.6,44,14.6,44,14.6C44,14.6,44,14.6,44,14.6L44,14.6z"/>
		<path class="st0" d="M47.6,15.5c-0.3,0-0.7,0.1-1.1,0.1c-0.3,0-0.6,0.1-0.7-0.3c0-0.1-0.2-0.1-0.2-0.1c-0.2,0-0.5,0-0.7,0
			c-0.3,0-0.6,0-0.8-0.2c0-0.1,0-0.2,0-0.3c-0.4,0.3-0.9,0.5-1.4,0.5c-0.6,0-1.2,0.3-1.8,0.5c0,0,0,0.1-0.1,0.1
			c0,0.2,0.3,0.1,0.3,0.4c-0.2,0.1-0.4,0.2-0.7,0.3c0.6,0.1,1-0.2,1.4-0.4c0-0.2,0-0.3-0.1-0.5c0.3-0.1,0.5,0,0.7,0
			c0.3,0.1,0.5-0.1,0.7-0.2c0.3,0.1,0.7,0,0.8,0.4c0.2-0.3,0.2-0.3,0.6-0.1c-0.5,0.6-1.2,0.6-1.9,1c0.4,0.1,0.7,0,0.9-0.1
			c0.3-0.1,0.5-0.1,0.8,0.1c0.2,0.1,0.4,0.2,0.6,0.1c0.3,0,0.6-0.1,0.8-0.1c0,0,0.1-0.1,0.1-0.1c0-0.1-0.1-0.1-0.1-0.2
			c0.2,0,0.4,0,0.6,0c0.2,0,0.4,0,0.6,0c0.1,0,0.3-0.1,0.2-0.3c-0.2-0.2-0.5,0-0.7-0.1c-0.1,0-0.2-0.1-0.2-0.2
			c0.2-0.1,0.4,0,0.6,0.1c0.3,0.1,0.5,0,0.8-0.2C47.6,15.7,47.7,15.6,47.6,15.5z M44.7,16.5c0,0,0-0.1-0.1-0.1c0,0,0.1-0.1,0.1-0.1
			c0,0,0,0.1,0,0.1C44.7,16.5,44.7,16.5,44.7,16.5z M45,16c-0.1,0.1-0.2,0.2-0.3,0.1c0,0,0-0.1,0-0.1c0.1-0.1,0.1-0.1,0.3-0.1
			C45,15.8,45,15.9,45,16C45,15.9,45,16,45,16z"/>
		<path class="st0" d="M69.8,18.7c0,0,0.1,0,0.1,0c0.2-0.1,0.3-0.4,0.1-0.5C70,18,69.9,18,69.8,17.9c-0.4-0.2-0.9-0.4-1.4-0.6
			c-0.1,0.4,0.1,0.6,0.3,0.8C69,18.5,69.4,18.6,69.8,18.7z"/>
		<path class="st0" d="M59.9,14.8c0.5,0,0.9,0,1.4,0c-0.5-0.4-1.1-0.5-1.6-0.3C59.5,14.8,59.7,14.8,59.9,14.8z"/>
		<path class="st0" d="M39.7,37c0.3,0.4,0.5,0.6,0.8,0.8c0.2-0.2,0.2-0.3,0.1-0.6C40.4,36.9,40.3,36.9,39.7,37z"/>
		<path class="st0" d="M40.4,18c0.1,0,0.2,0,0.3,0c0,0,0.1-0.1,0-0.2c0,0-0.1-0.1-0.2-0.1c-0.1,0-0.1,0.1-0.2,0.1
			C40.4,17.9,40.4,17.9,40.4,18z"/>
		<path class="st0" d="M50.7,85.6C50.7,85.6,50.7,85.7,50.7,85.6c0.1,0.1,0.2,0.1,0.2,0.1c0-0.1,0-0.1-0.1-0.1
			C50.8,85.5,50.8,85.5,50.7,85.6z"/>
		<path class="st0" d="M43.5,16.1c0.1-0.1,0.3-0.1,0.4-0.2C43.7,15.8,43.5,15.9,43.5,16.1z"/>
		<path class="st0" d="M43.8,15.9C43.9,15.9,43.9,15.9,43.8,15.9L43.8,15.9C43.9,15.9,43.9,15.9,43.8,15.9
			C43.9,15.9,43.9,15.9,43.8,15.9C43.9,15.9,43.9,15.9,43.8,15.9z"/>
		<path class="st0" d="M50.5,84.1C50.5,84.1,50.5,84.1,50.5,84.1C50.5,84.1,50.4,84.1,50.5,84.1z"/>
		<path class="st0" d="M50.6,84.1C50.6,84.1,50.5,84,50.6,84.1C50.5,84.1,50.5,84.1,50.6,84.1C50.5,84.1,50.5,84.1,50.6,84.1z"/>
		<path class="st0" d="M44.2,14.6C44.2,14.6,44.1,14.6,44.2,14.6c-0.1,0-0.1,0-0.2,0C44,14.7,44.1,14.7,44.2,14.6
			C44.1,14.7,44.2,14.7,44.2,14.6z"/>
		<path class="st0" d="M44,14.6C44,14.6,44,14.6,44,14.6C44,14.6,44,14.6,44,14.6C44,14.6,44,14.6,44,14.6z"/>
		<path class="st0" d="M9,40.6c7.2-0.2,14.4-0.3,21.6-0.4l21.6-0.1l21.6,0.1c7.2,0.1,14.4,0.2,21.6,0.4c-7.2,0.2-14.4,0.3-21.6,0.4
			l-21.6,0.1L30.6,41C23.4,40.9,16.2,40.8,9,40.6z"/>
	</g>
</g>
<text transform="matrix(1 0 0 1 261.0287 117.5859)" style="display:none;fill:#414042; font-family:'Roboto-Regular'; font-size:8.6573px;">CEO</text>
</svg>
